<svg xmlns="http://www.w3.org/2000/svg" viewBox="0 0 63.13 63.13"><defs><style>.\39 dd54e3d-2748-413f-a671-d78bd895ff46{fill:none;stroke:#000;stroke-miterlimit:10;}</style></defs><title>icono_parche</title><g id="e20f4fb9-23c6-4d0f-8b7f-f4fdddc3f712" data-name="Capa 2"><g id="c44cdc28-d26a-4f74-97fd-394709e4a484" data-name="Capa 2"><circle class="9dd54e3d-2748-413f-a671-d78bd895ff46" cx="31.57" cy="31.57" r="31.07"/><path d="M40.47,14.24H22.85a5.43,5.43,0,0,0-5.29,5.41V43.48a5.43,5.43,0,0,0,5.29,5.41H40.47a5.26,5.26,0,0,0,5.1-5.41V19.65A5.26,5.26,0,0,0,40.47,14.24Zm4,29.25a3.76,3.76,0,0,1-4,3.55H22.85a3.44,3.44,0,0,1-3.57-3.55V19.65a3.43,3.43,0,0,1,3.57-3.55H38.14v2.48a3.74,3.74,0,0,0-2.71-1.24H27.9c-2.29,0-4,2.18-4,4.86V41c0,2.68,1.79,4.86,4,4.86h7.53c2.29,0,3.86-2.18,3.86-4.86V16.09c3.07-.15,5.14,1.45,5.14,3.57V43.5Zm-6.29-21.3V40.95c0,1.86-1.25,3.62-2.71,3.62H27.9c-1.47,0-2.9-1.79-2.9-3.62V22.19a2.94,2.94,0,0,1,2.87-3h7.56A2.77,2.77,0,0,1,38.14,22q0,.09,0,.18Z"/></g></g></svg>