<svg xmlns="http://www.w3.org/2000/svg" viewBox="0 0 63.13 63.13"><defs><style>.dfa11f4e-5344-4c13-87ee-6c53cfa962f7{fill:none;stroke:#000;stroke-miterlimit:10;}</style></defs><title>icono_t</title><g id="9569aab7-8d90-4fde-90ec-accef0877ad4" data-name="Capa 2"><g id="4c1c54dc-2db3-40fb-9304-5a934d9bd4e3" data-name="Capa 2"><circle class="dfa11f4e-5344-4c13-87ee-6c53cfa962f7" cx="31.57" cy="31.57" r="31.07"/><path d="M47.54,11v.11c-.68-.51-.87,0-1.66,0H17.4c-.79,0-1.48-.18-2,.33a2.11,2.11,0,0,0-.79,1.69,3.45,3.45,0,0,0,.78,2.24,3.12,3.12,0,0,0,2,1.16H28.58V49.3a3.05,3.05,0,0,0,5.19,2,3,3,0,0,0,.91-2V16.56H45.89a3.11,3.11,0,0,0,2-1.22,3.24,3.24,0,0,0,.62-2.21A2.57,2.57,0,0,0,47.54,11Zm-1,3a1,1,0,0,1-.68.48H32.64v35a1,1,0,0,1-.24.79,1,1,0,0,1-.76.31,1,1,0,0,1-.77-.33,1,1,0,0,1-.26-.77v-35H17.4a1,1,0,0,1-.68-.5,1.21,1.21,0,0,1-.25-.79.62.62,0,0,1,.25-.58,1,1,0,0,1,.68-.16H45.88a1,1,0,0,1,.68.12,1.14,1.14,0,0,1,.24.78A.87.87,0,0,1,46.57,14Z"/></g></g></svg>