<svg xmlns="http://www.w3.org/2000/svg" viewBox="0 0 63.13 63.13"><title>icono_pila</title><g id="7b3de5ff-e9ed-4baa-88f4-e4c329c270b5" data-name="Capa 2"><g id="7260f150-7942-4b0a-9ba8-f56978066eb0" data-name="Capa 2"><path d="M31.56,63.13A31.56,31.56,0,1,1,63.13,31.56,31.6,31.6,0,0,1,31.56,63.13ZM31.56,1A30.56,30.56,0,1,0,62.13,31.56,30.6,30.6,0,0,0,31.56,1Z"/><path d="M42,10.22a3.72,3.72,0,0,0-5,1.7L19.34,48.07A3.72,3.72,0,0,0,26,51.34L43.73,15.19A3.72,3.72,0,0,0,42,10.22Zm.29,4.28L24.61,50.65a2.15,2.15,0,0,1-3.86-1.89L38.46,12.62a2.14,2.14,0,1,1,3.86,1.88h0Z"/></g></g></svg>