<svg xmlns="http://www.w3.org/2000/svg" viewBox="0 0 63.13 63.13"><defs><style>.\32 e81424e-2cf2-4ca3-bf59-2f8e0ea43bfb{fill:none;stroke:#000;stroke-miterlimit:10;}</style></defs><title>icono_inyectable_1</title><g id="4b21d422-6fe6-45cd-8209-bcd283cb9c08" data-name="Capa 2"><g id="20f6871e-ba4d-4f7a-884c-2998eb774725" data-name="Capa 2"><path d="M39.91,23.14l-2.15-1.3,3.5-5.73a.72.72,0,0,0,.09-.23,3.38,3.38,0,1,0-1.1-.67.72.72,0,0,0-.16.18l-3.5,5.73-2.15-1.3c-1.73-1.05-3.71-.86-4.5.44a.72.72,0,0,0,1.18.72c.29-.48,1.23-.63,2.23-.17L20.09,42.58a.72.72,0,0,0,.23,1l1.9,1.15-4.78,7.88a.72.72,0,1,0,1.18.72L23.4,45.4l1.9,1.15a.72.72,0,0,0,1-.23L39.51,24.55c.86.67,1.16,1.58.87,2.06a.72.72,0,0,0,1.18.72C42.37,26,41.64,24.19,39.91,23.14Zm.92-11.46a2,2,0,1,1,.67,2.74,2,2,0,0,1-.67-2.74l0,0ZM21.67,42.75l2.51-4.12,2,1.21a.72.72,0,1,0,.72-1.18l-2-1.21,3-4.87,2,1.21a.72.72,0,1,0,.72-1.18l-2-1.21,3-4.87,2,1.21a.72.72,0,1,0,.72-1.18l-2-1.21,2.31-3.79,3.8,2.31L25.46,45.07l-3.8-2.31h0Z"/><circle class="2e81424e-2cf2-4ca3-bf59-2f8e0ea43bfb" cx="31.57" cy="31.57" r="31.07"/></g></g></svg>