<svg xmlns="http://www.w3.org/2000/svg" viewBox="0 0 63.13 63.13"><title>icono_anillo</title><g id="12e5563d-3855-419f-9fec-ec3b5997bc52" data-name="Capa 2"><g id="115227de-af6e-46c3-9c75-58dc46fd334f" data-name="Capa 2"><path d="M31.56,63.13A31.56,31.56,0,1,1,63.13,31.56,31.6,31.6,0,0,1,31.56,63.13ZM31.56,1A30.56,30.56,0,1,0,62.13,31.56,30.6,30.6,0,0,0,31.56,1Z"/><path d="M35.51,10.93c-.42-.09-.84-.16-1.26-.22A2.47,2.47,0,0,0,31.6,13a2.59,2.59,0,0,0,1.83,3.11c.45.09,1.35.26,1.35.24A15.54,15.54,0,1,1,16,31.53a15.23,15.23,0,0,1,12.7-15.29l.47-.1.63-.17s1.7-.59,1.46-3.09a2.36,2.36,0,0,0-2.7-2.18,9,9,0,0,0-1.26.3,20.94,20.94,0,1,0,8.24-.07ZM32.81,51h0q-.64,0-1.28,0a19.48,19.48,0,0,1-2.88-38.75,1.35,1.35,0,0,1,.28-.06.88.88,0,0,1,1,.55,1.39,1.39,0,0,1-.19,1.5,4.53,4.53,0,0,1-1.66.53,4.88,4.88,0,0,0-.74.24,17.09,17.09,0,1,0,7.74-.12h-.23a5.31,5.31,0,0,1-1.77-.51,1.43,1.43,0,0,1-.22-1.53A1,1,0,0,1,34,12.25c.33,0,.84.14,1.23.22l.23,0h0l.3.07a19.5,19.5,0,0,1-3,38.43Z"/></g></g></svg>