<svg xmlns="http://www.w3.org/2000/svg" viewBox="0 0 63.13 63.13"><title>icono_pastas</title><g id="bbfd08fc-7b8f-46bc-8659-74a4e26035fd" data-name="Capa 2"><g id="a970b7e9-dc90-4975-871b-448443ad11c0" data-name="Capa 2"><path d="M31.56,63.13A31.56,31.56,0,1,1,63.13,31.56,31.6,31.6,0,0,1,31.56,63.13ZM31.56,1A30.56,30.56,0,1,0,62.13,31.56,30.6,30.6,0,0,0,31.56,1Z"/><path d="M41.89,52.44H21.24a4,4,0,0,1-4-4V14.68a4,4,0,0,1,4-4H41.89a4,4,0,0,1,4,4V48.45A4,4,0,0,1,41.89,52.44ZM21.24,11.69a3,3,0,0,0-3,3V48.45a3,3,0,0,0,3,3H41.89a3,3,0,0,0,3-3V14.68a3,3,0,0,0-3-3ZM39.09,48.21a1.91,1.91,0,1,1,.5-.07v.07Zm-.1-1h.1a.83.83,0,1,0-.1,0Zm-10.4,1v-.07a1.84,1.84,0,1,1,.5.07Zm.49-2.77a.88.88,0,0,0,0,1.76h.1a.88.88,0,0,0,.78-.88A.88.88,0,0,0,29.08,45.43Zm-5.5,2.77v-.07a1.84,1.84,0,1,1,.5.07Zm.49-2.77a.88.88,0,0,0,0,1.76h.1a.88.88,0,0,0,.78-.88A.88.88,0,0,0,24.08,45.43Zm10,2.77A1.88,1.88,0,1,1,36,46.32,1.88,1.88,0,0,1,34.09,48.2Zm0-2.76a.88.88,0,1,0,.88.88A.88.88,0,0,0,34.09,45.44Zm5-1.83a1.94,1.94,0,1,1,.5-.08v.07Zm-.15-1h.15a.81.81,0,1,0-.15,0Zm-4.85,1a1.91,1.91,0,1,1,.5-.07v.07Zm-.11-1h.11a.83.83,0,1,0-.11,0Zm-4.89,1A1.88,1.88,0,1,1,31,41.71a1.88,1.88,0,0,1-1.88,1.88Zm0-2.76a.88.88,0,1,0,.88.88A.88.88,0,0,0,29.08,40.83Zm-5,2.72a1.88,1.88,0,0,1-.5-3.69V39.8h.5a1.88,1.88,0,1,1,0,3.76Zm0-2.76a.83.83,0,1,0,.1,0Zm4.54-2.16v-.11a1.78,1.78,0,1,1,.52.09Zm.47-2.81a.88.88,0,1,0,0,1.76h.23a.9.9,0,0,0-.23-1.76Zm4.53,2.81v-.1A1.88,1.88,0,1,1,36,36.72a1.88,1.88,0,0,1-1.84,1.91Zm.47-2.8a.88.88,0,0,0,0,1.76h.22a.88.88,0,0,0,.66-.87A.88.88,0,0,0,34.09,35.84Zm4.52,2.8v-.09A1.88,1.88,0,1,1,41,36.72a1.88,1.88,0,0,1-1.85,1.9Zm.48-2.79a.88.88,0,1,0,0,1.76h.19a.89.89,0,0,0-.19-1.76Zm-15,2.71a1.88,1.88,0,0,1-.5-3.69V34.8h.5a1.88,1.88,0,1,1,0,3.76Zm0-2.76a.83.83,0,1,0,.11,0Zm15-1.39a1.94,1.94,0,1,1,.5-.08v.07Zm-.15-1h.15a.81.81,0,1,0-.15,0Zm-4.85,1a1.91,1.91,0,1,1,.5-.07v.07Zm-.1-1h.1a.83.83,0,1,0-.1,0Zm-4.9,1A1.88,1.88,0,1,1,31,32.51,1.88,1.88,0,0,1,29.08,34.39Zm0-2.76a.88.88,0,1,0,.88.88A.88.88,0,0,0,29.08,31.63Zm-5,2.72a1.88,1.88,0,0,1-.5-3.69V30.6h.5a1.88,1.88,0,1,1,0,3.76Zm0-2.76a.83.83,0,1,0,.11,0Zm15-1.79a1.94,1.94,0,1,1,.5-.08v.07Zm-.15-1h.15a.81.81,0,1,0-.15,0Zm-4.85,1a1.91,1.91,0,1,1,.5-.07v.07Zm-.11-1h.11a.83.83,0,1,0-.11,0Zm-4.89,1A1.88,1.88,0,1,1,31,27.91a1.88,1.88,0,0,1-1.88,1.88Zm0-2.76a.88.88,0,1,0,.88.88A.88.88,0,0,0,29.08,27Zm-5,2.72a1.88,1.88,0,0,1-.5-3.69V26h.5a1.88,1.88,0,1,1,0,3.76Zm0-2.76a.83.83,0,1,0,.11,0Zm4.52-2.18v-.09a1.82,1.82,0,1,1,.51.08ZM29.08,22a.88.88,0,0,0,0,1.76h.18A.89.89,0,0,0,29.08,22Zm4.52,2.79v-.08a1.84,1.84,0,1,1,.51.08ZM34.09,22a.88.88,0,0,0,0,1.76h.15A.89.89,0,0,0,34.09,22Zm4.51,2.78v-.08a1.86,1.86,0,1,1,.5.07ZM39.09,22a.88.88,0,1,0,0,1.76h.12A.89.89,0,0,0,39.09,22Zm-15,2.71A1.88,1.88,0,1,1,26,22.87,1.88,1.88,0,0,1,24.08,24.75Zm0-2.76a.88.88,0,1,0,.88.88A.88.88,0,0,0,24.08,22Zm15-1.78a1.93,1.93,0,1,1,.5-.08v.07Zm-.14-1h.14a.81.81,0,1,0-.14,0Zm-4.86,1a1.91,1.91,0,1,1,.5-.07v.07Zm-.1-1h.1a.83.83,0,1,0-.1,0Zm-4.9,1A1.88,1.88,0,1,1,31,18.31,1.88,1.88,0,0,1,29.08,20.19Zm0-2.76a.88.88,0,1,0,.88.88A.88.88,0,0,0,29.08,17.43Zm-5,2.72A1.88,1.88,0,1,1,26,18.27,1.88,1.88,0,0,1,24.08,20.15Zm0-2.76a.88.88,0,1,0,.88.88A.88.88,0,0,0,24.08,17.39Z"/></g></g></svg>