<svg xmlns="http://www.w3.org/2000/svg" viewBox="0 0 317.14 452.51"><defs><style>.cls-1{fill:#f9698c;}</style></defs><title>Recurso 3</title><g id="Capa_2" data-name="Capa 2"><g id="Capa_6" data-name="Capa 6"><path class="cls-1" d="M316.69,422.38c-1.12-6.18-2.41-12.34-3.61-18.51L300.23,338c-1.32-6.76-2.59-13.54-4-20.29-2.6-12.81-11.63-19.41-23.73-22.49-17-4.32-33.94-8.67-50.81-13.37-5.21-1.45-10.63-2.71-15.65-4.73l-.11,0a24.79,24.79,0,0,1-2.76-1.53,16,16,0,0,1-5.76-5.74,16.39,16.39,0,0,1-1.29-3.28q20,.43,40-.22c6.91-.21,14-.24,20.84-1.06s11.2-5.07,12.18-12c.79-5.58.31-11.49.35-17.13q.08-9.46.23-18.93.31-21.39.75-42.77c.48-25.47.49-51,1.07-76.41s-1.1-53.2-23.73-69.65a45.48,45.48,0,0,0-20.3-8.23c-7.7-1.07-15.49,1.5-22.64-2.53-13-7.35-25.48-13.58-40.45-16.09C135.39-3.41,105.78,4,83,22.89c-23.3,19.4-35.21,47.69-37,77.53-1.28,21.61-.54,43.48-.36,65.12q.3,37,.69,74.08c.05,5.51-.41,11.21,1.81,16.38a21.07,21.07,0,0,0,12.32,11.52c6.28,2.21,13.74,1.17,20.29,1.15s13.15,0,19.73,0c2.14,0,4.28,0,6.42,0,.66,0,4.59.38,2.42-.06,5.66,1.14,8.08-7.54,2.39-8.68-2.56-.51-5.35-.27-7.94-.28-5.65,0-11.3,0-17,0-10,0-29.41,3.85-31.34-10.43-.64-4.75-.14-9.94-.19-14.73q-.08-8.11-.16-16.22-.17-17.74-.34-35.49c-.17-18.34-.42-36.69-.32-55,.07-13.53-.28-27.3,1.94-40.7a96.78,96.78,0,0,1,16.07-39.6A90.35,90.35,0,0,1,141.9,9a97.8,97.8,0,0,1,40.82,6.87c6.31,2.52,11.81,6.1,17.67,9.43,6.16,3.5,12.38,3.81,19.25,3.4,15.26-.91,28.29,8.55,35.56,21.41,6,10.54,7.56,22.64,7.64,34.58.15,21.77-.48,43.6-.86,65.36-.46,26.05-1,52.1-1.35,78.16q-.1,8.21-.13,16.42c0,2.46.27,5.14-.18,7.56-.81,4.35-4.42,4.15-8.12,4.37-13.83.82-27.71,1.08-41.56,1.08q-7.74,0-15.48-.19c0-1.53,0-3,0-4.48a4.28,4.28,0,0,0-.74-2.52,81.21,81.21,0,0,0,34.81-23.07C238.48,216.92,243,203.6,245.13,190c2.62-16.46,3.36-33.35,3.4-50,0-5.79-9-5.8-9,0a376.82,376.82,0,0,1-2.23,41.15c-1.26,11.2-3.52,23-9.3,32.81-14.3,24.27-44,33.84-70.66,32.85-26.86-1-56.8-11-69-37-6.58-14-11.52-32.22-9.62-47.78.4-3.26.76-9,4.21-10.21s8.08-1.06,11.8-1.57c8.1-1.1,16.19-2.35,24.18-4.1,17.2-3.77,33.49-10.16,48-20.17,13-9,24.5-19.85,35.74-30.92a69.33,69.33,0,0,0,35,24.38c5.55,1.7,7.92-7,2.39-8.68a59.7,59.7,0,0,1-32.85-24.9,4.56,4.56,0,0,0-7.07-.91c-12.3,12.18-24.7,24.53-39.13,34.22-15.13,10.16-32,16-49.79,19.4-9.13,1.76-18.34,2.91-27.56,4.11-7.9,1-11.13,5.31-12.86,12.9-3.85,16.89.78,35.39,6.68,51.28C82.84,221.28,91.88,233,105,241.18a85.64,85.64,0,0,0,16.56,8V262c0,3.87,1.14,10.29-2.07,13.24-2.17,2-6.19,2.18-9,2.84s-5.92,1.42-8.88,2.15l-5.67,1.43a5.12,5.12,0,0,0-1.77.45c-13.2,3.34-26.36,6.81-39.53,10.29-7,1.86-15.08,3-21.26,7.06a28.16,28.16,0,0,0-12,17.32c-1.16,5-2.06,10-3.08,15l-13.38,65C3.51,403.58,2.06,410.4.69,417.25c-2.31,11.58,1.1,23.21,11.18,30.08,9.28,6.32,21.26,4.75,31.92,4.75H73c5.79,0,5.8-9,0-9H49.68c-7.85,0-15.93.56-23.76,0-12.23-.94-18.73-12.41-16.49-23.66,1.35-6.76,2.78-13.5,4.17-20.24l13.08-63.52c1.11-5.39,2.11-10.81,3.33-16.18,3.4-15,19-16.25,31.56-19.56,10.9-2.87,21.79-5.76,32.72-8.54C107,308.89,128,324.2,149.17,328c13.6,2.42,26.78-.55,39.43-5.64,11.74-4.72,23-10.92,31.18-20.76,3.69-4.41-2.64-10.81-6.36-6.36-7.21,8.62-16.88,14.29-27.21,18.44-11.59,4.66-23.82,7.89-36.32,5.31-17.37-3.59-34.87-15.7-46.16-30,2.21-.54,4.42-1.1,6.63-1.63,7.48-1.79,15-2.73,18.6-10.51,2-4.24,1.57-8.84,1.57-13.39V251.91a122.86,122.86,0,0,0,15,2.89,111.25,111.25,0,0,0,40.61-1.91s0,.06,0,.09c0,8.43.13,17.86,5.83,24.65a30.25,30.25,0,0,0,14,8.91c12.27,4.07,24.93,7.13,37.43,10.41q11.11,2.91,22.23,5.75c7.65,2,15.61,3.19,19.81,10.76,2.47,4.46,2.93,10.59,3.9,15.53l12.06,61.87,5.26,27c1.26,6.45,3.14,12.86-1.08,18.83-6.28,8.87-19.7,6.43-29.13,6.43H247.87c-5.79,0-5.8,9,0,9H273c8.37,0,18.41,1.4,26.62-.87C312.41,447.67,319,434.95,316.69,422.38Z"/></g></g></svg>